M48
; DRILL file KiCad 10.0.1 date 2026-07-12T23:09:01
; FORMAT={-:-/ absolute / metric / decimal}
; #@! TF.CreationDate,2026-07-12T23:09:01+03:00
; #@! TF.GenerationSoftware,Kicad,Pcbnew,10.0.1
; #@! TF.FileFunction,Plated,1,2,PTH
FMAT,2
METRIC
; #@! TA.AperFunction,Plated,PTH,ViaDrill
T1C0.300
; #@! TA.AperFunction,Plated,PTH,ComponentDrill
T2C1.000
; #@! TA.AperFunction,Plated,PTH,ComponentDrill
T3C1.000
; #@! TA.AperFunction,Plated,PTH,ComponentDrill
T4C1.500
%
G90
G05
T1
X74.93Y-86.61
X75.52Y-90.59
X75.95Y-53.86
X77.199Y-77.17
X78.66Y-47.88
X78.91Y-91.81
X79.5Y-68.02
X80.315Y-97.8
X80.6Y-100.63
X81.59Y-59.4
X82.75Y-76.97
X83.14Y-79.67
X83.26Y-75.47
X83.56Y-112.44
X83.59Y-129.18
X83.959Y-105.25
X84.11Y-65.51
X84.41Y-67.1
X84.44Y-51.24
X84.677Y-88.989
X84.89Y-78.01
X85.16Y-117.34
X85.61Y-96.88
X85.77Y-88.0
X86.49Y-79.369
X86.949Y-102.259
X86.97Y-74.23
X87.41Y-89.411
X87.54Y-127.83
X87.55Y-79.58
X88.15Y-78.48
X88.39Y-122.95
X88.57Y-108.54
X88.58Y-96.44
X88.7Y-77.01
X89.14Y-83.94
X89.55Y-95.296
X89.66Y-110.93
X89.93Y-97.2
X90.2Y-49.08
X90.2Y-58.22
X90.76Y-136.81
X91.01Y-131.55
X91.09Y-71.91
X92.12Y-140.08
X92.17Y-77.71
X92.43Y-116.55
X92.5Y-108.54
X92.66Y-72.67
X92.81Y-129.27
X93.84Y-73.84
X93.86Y-71.51
X94.24Y-97.82
X94.9Y-77.42
X95.16Y-72.61
X95.45Y-136.76
X95.92Y-101.02
X96.71Y-99.27
X96.71Y-133.81
X96.88Y-124.79
X96.95Y-67.82
X97.05Y-102.33
X97.45Y-42.79
X97.51Y-131.68
X97.72Y-100.59
X97.95Y-130.8
X98.08Y-97.48
X98.28Y-129.22
X98.34Y-77.01
X99.34Y-120.82
X100.96Y-113.54
X101.24Y-93.11
X101.37Y-133.06
X101.39Y-75.53
X101.84Y-97.13
X101.95Y-100.7
X102.48Y-146.83
X102.56Y-119.94
X103.48Y-49.2
X104.38Y-132.07
X104.71Y-72.15
X104.86Y-74.06
X105.24Y-53.75
X105.32Y-112.8
X105.47Y-116.89
X106.17Y-97.46
X106.81Y-122.9
X107.58Y-67.24
X108.21Y-85.88
X108.74Y-120.07
X110.12Y-76.35
X111.4Y-40.19
X111.57Y-94.8
X111.96Y-89.23
X112.04Y-90.85
X114.04Y-50.79
X114.1Y-73.64
X114.38Y-95.42
X119.26Y-82.94
X121.22Y-73.64
X121.7Y-90.55
X123.23Y-106.68
X124.09Y-103.86
X125.27Y-98.71
X127.0Y-25.4
X127.0Y-25.4
X127.0Y-25.4
X127.0Y-25.4
X127.0Y-25.4
X127.0Y-25.4
X127.0Y-25.4
X127.0Y-25.4
X127.0Y-25.4
X127.0Y-25.4
X127.0Y-25.4
X127.0Y-25.4
X127.0Y-25.4
X127.0Y-128.336
X127.58Y-43.31
X127.66Y-101.36
X128.16Y-90.7
X129.22Y-96.83
X152.4Y-101.6
T2
X100.72Y-134.38
X100.72Y-137.38
X105.52Y-134.38
X105.52Y-137.38
T3
X75.41Y-81.19
X75.41Y-83.73
X75.475Y-99.925
X75.475Y-102.465
X85.69Y-69.41
X86.61Y-41.59
X88.23Y-69.41
X89.15Y-41.59
X90.77Y-69.41
X90.77Y-89.73
X91.69Y-41.59
X93.31Y-69.41
X93.31Y-89.73
X94.23Y-41.59
X94.23Y-103.67
X94.23Y-106.21
X94.23Y-108.75
X94.23Y-111.29
X94.23Y-113.83
X94.23Y-116.37
X94.23Y-118.91
X94.23Y-121.45
X94.23Y-123.99
X94.23Y-126.53
X94.23Y-129.07
X94.23Y-131.61
X94.23Y-134.15
X94.23Y-136.69
X94.23Y-139.23
X94.23Y-141.77
X94.23Y-144.31
X94.23Y-146.85
X94.23Y-149.39
X94.23Y-151.93
X95.85Y-69.41
X95.85Y-89.73
X96.77Y-41.59
X98.39Y-69.41
X98.39Y-89.73
X99.31Y-41.59
X99.31Y-125.41
X100.93Y-69.41
X100.93Y-89.73
X101.85Y-41.59
X101.85Y-125.41
X103.47Y-69.41
X103.47Y-89.73
X104.39Y-41.59
X104.39Y-125.41
X106.01Y-69.41
X106.01Y-89.73
X106.93Y-41.59
X106.93Y-125.41
X108.55Y-69.41
X108.55Y-89.73
X109.47Y-41.59
X112.01Y-41.59
X112.01Y-103.67
X112.01Y-106.21
X112.01Y-108.75
X112.01Y-111.29
X112.01Y-113.83
X112.01Y-116.37
X112.01Y-118.91
X112.01Y-121.45
X112.01Y-123.99
X112.01Y-126.53
X112.01Y-129.07
X112.01Y-131.61
X112.01Y-134.15
X112.01Y-136.69
X112.01Y-139.23
X112.01Y-141.77
X112.01Y-144.31
X112.01Y-146.85
X112.01Y-149.39
X112.01Y-151.93
X114.55Y-41.59
X117.09Y-41.59
X119.63Y-41.59
X129.963Y-61.12
X129.963Y-65.62
X129.963Y-73.16
X129.963Y-77.66
T4
X127.463Y-59.87
X127.463Y-66.87
X127.463Y-71.91
X127.463Y-78.91
M30
