%TF.GenerationSoftware,KiCad,Pcbnew,10.0.1*%
%TF.CreationDate,2026-07-12T23:09:01+03:00*%
%TF.ProjectId,flex,666c6578-2e6b-4696-9361-645f70636258,rev?*%
%TF.SameCoordinates,Original*%
%TF.FileFunction,Drillmap*%
%TF.FilePolarity,Positive*%
%FSLAX45Y45*%
G04 Gerber Fmt 4.5, Leading zero omitted, Abs format (unit mm)*
G04 Created by KiCad (PCBNEW 10.0.1) date 2026-07-12 23:09:01*
%MOMM*%
%LPD*%
G01*
G04 APERTURE LIST*
%ADD10C,0.100000*%
%ADD11C,0.010050*%
%ADD12C,0.200000*%
%ADD13C,0.220000*%
G04 APERTURE END LIST*
D10*
X7202000Y-4054000D02*
X8212000Y-3354000D01*
D11*
X7212502Y-2854000D02*
G75*
G02*
X7211497Y-2854000I-503J0D01*
G01*
X7211497Y-2854000D02*
G75*
G02*
X7212502Y-2854000I503J0D01*
G01*
X7212502Y-15354000D02*
G75*
G02*
X7211497Y-15354000I-503J0D01*
G01*
X7211497Y-15354000D02*
G75*
G02*
X7212502Y-15354000I503J0D01*
G01*
D10*
X7312000Y-13554000D02*
X7202000Y-4054000D01*
X8212000Y-3354000D02*
X12412000Y-3354000D01*
X8812000Y-15354000D02*
X7312000Y-13554000D01*
D11*
X10312503Y-9104000D02*
G75*
G02*
X10311498Y-9104000I-503J0D01*
G01*
X10311498Y-9104000D02*
G75*
G02*
X10312503Y-9104000I503J0D01*
G01*
D10*
X11812000Y-15354000D02*
X8812000Y-15354000D01*
X12412000Y-3354000D02*
X13422000Y-4054000D01*
X13312000Y-13554000D02*
X11812000Y-15354000D01*
D11*
X13412502Y-2854000D02*
G75*
G02*
X13411497Y-2854000I-503J0D01*
G01*
X13411497Y-2854000D02*
G75*
G02*
X13412502Y-2854000I503J0D01*
G01*
X13412502Y-15354000D02*
G75*
G02*
X13411497Y-15354000I-503J0D01*
G01*
X13411497Y-15354000D02*
G75*
G02*
X13412502Y-15354000I503J0D01*
G01*
D10*
X13422000Y-4054000D02*
X13312000Y-13554000D01*
D12*
D13*
X8373000Y-14284000D02*
X8593000Y-14504000D01*
X8593000Y-14284000D02*
X8373000Y-14504000D01*
X10254000Y-3502000D02*
X10474000Y-3722000D01*
X10474000Y-3502000D02*
X10254000Y-3722000D01*
X11737000Y-14383000D02*
X11957000Y-14603000D01*
X11957000Y-14383000D02*
X11737000Y-14603000D01*
D12*
X7457777Y-15670484D02*
X7457777Y-15470484D01*
X7457777Y-15470484D02*
X7505396Y-15470484D01*
X7505396Y-15470484D02*
X7533967Y-15480008D01*
X7533967Y-15480008D02*
X7553015Y-15499055D01*
X7553015Y-15499055D02*
X7562539Y-15518103D01*
X7562539Y-15518103D02*
X7572062Y-15556198D01*
X7572062Y-15556198D02*
X7572062Y-15584769D01*
X7572062Y-15584769D02*
X7562539Y-15622865D01*
X7562539Y-15622865D02*
X7553015Y-15641912D01*
X7553015Y-15641912D02*
X7533967Y-15660960D01*
X7533967Y-15660960D02*
X7505396Y-15670484D01*
X7505396Y-15670484D02*
X7457777Y-15670484D01*
X7657777Y-15670484D02*
X7657777Y-15537150D01*
X7657777Y-15575246D02*
X7667301Y-15556198D01*
X7667301Y-15556198D02*
X7676824Y-15546674D01*
X7676824Y-15546674D02*
X7695872Y-15537150D01*
X7695872Y-15537150D02*
X7714920Y-15537150D01*
X7781586Y-15670484D02*
X7781586Y-15537150D01*
X7781586Y-15470484D02*
X7772062Y-15480008D01*
X7772062Y-15480008D02*
X7781586Y-15489531D01*
X7781586Y-15489531D02*
X7791110Y-15480008D01*
X7791110Y-15480008D02*
X7781586Y-15470484D01*
X7781586Y-15470484D02*
X7781586Y-15489531D01*
X7905396Y-15670484D02*
X7886348Y-15660960D01*
X7886348Y-15660960D02*
X7876824Y-15641912D01*
X7876824Y-15641912D02*
X7876824Y-15470484D01*
X8010158Y-15670484D02*
X7991110Y-15660960D01*
X7991110Y-15660960D02*
X7981586Y-15641912D01*
X7981586Y-15641912D02*
X7981586Y-15470484D01*
X8238729Y-15670484D02*
X8238729Y-15470484D01*
X8238729Y-15470484D02*
X8305396Y-15613341D01*
X8305396Y-15613341D02*
X8372062Y-15470484D01*
X8372062Y-15470484D02*
X8372062Y-15670484D01*
X8553015Y-15670484D02*
X8553015Y-15565722D01*
X8553015Y-15565722D02*
X8543491Y-15546674D01*
X8543491Y-15546674D02*
X8524444Y-15537150D01*
X8524444Y-15537150D02*
X8486348Y-15537150D01*
X8486348Y-15537150D02*
X8467301Y-15546674D01*
X8553015Y-15660960D02*
X8533967Y-15670484D01*
X8533967Y-15670484D02*
X8486348Y-15670484D01*
X8486348Y-15670484D02*
X8467301Y-15660960D01*
X8467301Y-15660960D02*
X8457777Y-15641912D01*
X8457777Y-15641912D02*
X8457777Y-15622865D01*
X8457777Y-15622865D02*
X8467301Y-15603817D01*
X8467301Y-15603817D02*
X8486348Y-15594293D01*
X8486348Y-15594293D02*
X8533967Y-15594293D01*
X8533967Y-15594293D02*
X8553015Y-15584769D01*
X8648253Y-15537150D02*
X8648253Y-15737150D01*
X8648253Y-15546674D02*
X8667301Y-15537150D01*
X8667301Y-15537150D02*
X8705396Y-15537150D01*
X8705396Y-15537150D02*
X8724444Y-15546674D01*
X8724444Y-15546674D02*
X8733967Y-15556198D01*
X8733967Y-15556198D02*
X8743491Y-15575246D01*
X8743491Y-15575246D02*
X8743491Y-15632388D01*
X8743491Y-15632388D02*
X8733967Y-15651436D01*
X8733967Y-15651436D02*
X8724444Y-15660960D01*
X8724444Y-15660960D02*
X8705396Y-15670484D01*
X8705396Y-15670484D02*
X8667301Y-15670484D01*
X8667301Y-15670484D02*
X8648253Y-15660960D01*
X8829205Y-15651436D02*
X8838729Y-15660960D01*
X8838729Y-15660960D02*
X8829205Y-15670484D01*
X8829205Y-15670484D02*
X8819682Y-15660960D01*
X8819682Y-15660960D02*
X8829205Y-15651436D01*
X8829205Y-15651436D02*
X8829205Y-15670484D01*
X8829205Y-15546674D02*
X8838729Y-15556198D01*
X8838729Y-15556198D02*
X8829205Y-15565722D01*
X8829205Y-15565722D02*
X8819682Y-15556198D01*
X8819682Y-15556198D02*
X8829205Y-15546674D01*
X8829205Y-15546674D02*
X8829205Y-15565722D01*
X6997000Y-15899000D02*
X7197000Y-16099000D01*
X7197000Y-15899000D02*
X6997000Y-16099000D01*
X7448253Y-15909531D02*
X7457777Y-15900008D01*
X7457777Y-15900008D02*
X7476824Y-15890484D01*
X7476824Y-15890484D02*
X7524443Y-15890484D01*
X7524443Y-15890484D02*
X7543491Y-15900008D01*
X7543491Y-15900008D02*
X7553015Y-15909531D01*
X7553015Y-15909531D02*
X7562539Y-15928579D01*
X7562539Y-15928579D02*
X7562539Y-15947627D01*
X7562539Y-15947627D02*
X7553015Y-15976198D01*
X7553015Y-15976198D02*
X7438729Y-16090484D01*
X7438729Y-16090484D02*
X7562539Y-16090484D01*
X7648253Y-16071436D02*
X7657777Y-16080960D01*
X7657777Y-16080960D02*
X7648253Y-16090484D01*
X7648253Y-16090484D02*
X7638729Y-16080960D01*
X7638729Y-16080960D02*
X7648253Y-16071436D01*
X7648253Y-16071436D02*
X7648253Y-16090484D01*
X7733967Y-15909531D02*
X7743491Y-15900008D01*
X7743491Y-15900008D02*
X7762539Y-15890484D01*
X7762539Y-15890484D02*
X7810158Y-15890484D01*
X7810158Y-15890484D02*
X7829205Y-15900008D01*
X7829205Y-15900008D02*
X7838729Y-15909531D01*
X7838729Y-15909531D02*
X7848253Y-15928579D01*
X7848253Y-15928579D02*
X7848253Y-15947627D01*
X7848253Y-15947627D02*
X7838729Y-15976198D01*
X7838729Y-15976198D02*
X7724443Y-16090484D01*
X7724443Y-16090484D02*
X7848253Y-16090484D01*
X7972062Y-15890484D02*
X7991110Y-15890484D01*
X7991110Y-15890484D02*
X8010158Y-15900008D01*
X8010158Y-15900008D02*
X8019682Y-15909531D01*
X8019682Y-15909531D02*
X8029205Y-15928579D01*
X8029205Y-15928579D02*
X8038729Y-15966674D01*
X8038729Y-15966674D02*
X8038729Y-16014293D01*
X8038729Y-16014293D02*
X8029205Y-16052388D01*
X8029205Y-16052388D02*
X8019682Y-16071436D01*
X8019682Y-16071436D02*
X8010158Y-16080960D01*
X8010158Y-16080960D02*
X7991110Y-16090484D01*
X7991110Y-16090484D02*
X7972062Y-16090484D01*
X7972062Y-16090484D02*
X7953015Y-16080960D01*
X7953015Y-16080960D02*
X7943491Y-16071436D01*
X7943491Y-16071436D02*
X7933967Y-16052388D01*
X7933967Y-16052388D02*
X7924443Y-16014293D01*
X7924443Y-16014293D02*
X7924443Y-15966674D01*
X7924443Y-15966674D02*
X7933967Y-15928579D01*
X7933967Y-15928579D02*
X7943491Y-15909531D01*
X7943491Y-15909531D02*
X7953015Y-15900008D01*
X7953015Y-15900008D02*
X7972062Y-15890484D01*
X8162539Y-15890484D02*
X8181586Y-15890484D01*
X8181586Y-15890484D02*
X8200634Y-15900008D01*
X8200634Y-15900008D02*
X8210158Y-15909531D01*
X8210158Y-15909531D02*
X8219682Y-15928579D01*
X8219682Y-15928579D02*
X8229205Y-15966674D01*
X8229205Y-15966674D02*
X8229205Y-16014293D01*
X8229205Y-16014293D02*
X8219682Y-16052388D01*
X8219682Y-16052388D02*
X8210158Y-16071436D01*
X8210158Y-16071436D02*
X8200634Y-16080960D01*
X8200634Y-16080960D02*
X8181586Y-16090484D01*
X8181586Y-16090484D02*
X8162539Y-16090484D01*
X8162539Y-16090484D02*
X8143491Y-16080960D01*
X8143491Y-16080960D02*
X8133967Y-16071436D01*
X8133967Y-16071436D02*
X8124443Y-16052388D01*
X8124443Y-16052388D02*
X8114920Y-16014293D01*
X8114920Y-16014293D02*
X8114920Y-15966674D01*
X8114920Y-15966674D02*
X8124443Y-15928579D01*
X8124443Y-15928579D02*
X8133967Y-15909531D01*
X8133967Y-15909531D02*
X8143491Y-15900008D01*
X8143491Y-15900008D02*
X8162539Y-15890484D01*
X8314920Y-16090484D02*
X8314920Y-15957150D01*
X8314920Y-15976198D02*
X8324443Y-15966674D01*
X8324443Y-15966674D02*
X8343491Y-15957150D01*
X8343491Y-15957150D02*
X8372063Y-15957150D01*
X8372063Y-15957150D02*
X8391110Y-15966674D01*
X8391110Y-15966674D02*
X8400634Y-15985722D01*
X8400634Y-15985722D02*
X8400634Y-16090484D01*
X8400634Y-15985722D02*
X8410158Y-15966674D01*
X8410158Y-15966674D02*
X8429205Y-15957150D01*
X8429205Y-15957150D02*
X8457777Y-15957150D01*
X8457777Y-15957150D02*
X8476825Y-15966674D01*
X8476825Y-15966674D02*
X8486348Y-15985722D01*
X8486348Y-15985722D02*
X8486348Y-16090484D01*
X8581586Y-16090484D02*
X8581586Y-15957150D01*
X8581586Y-15976198D02*
X8591110Y-15966674D01*
X8591110Y-15966674D02*
X8610158Y-15957150D01*
X8610158Y-15957150D02*
X8638729Y-15957150D01*
X8638729Y-15957150D02*
X8657777Y-15966674D01*
X8657777Y-15966674D02*
X8667301Y-15985722D01*
X8667301Y-15985722D02*
X8667301Y-16090484D01*
X8667301Y-15985722D02*
X8676825Y-15966674D01*
X8676825Y-15966674D02*
X8695872Y-15957150D01*
X8695872Y-15957150D02*
X8724444Y-15957150D01*
X8724444Y-15957150D02*
X8743491Y-15966674D01*
X8743491Y-15966674D02*
X8753015Y-15985722D01*
X8753015Y-15985722D02*
X8753015Y-16090484D01*
X9143491Y-15880960D02*
X8972063Y-16138103D01*
X9400634Y-15890484D02*
X9419682Y-15890484D01*
X9419682Y-15890484D02*
X9438729Y-15900008D01*
X9438729Y-15900008D02*
X9448253Y-15909531D01*
X9448253Y-15909531D02*
X9457777Y-15928579D01*
X9457777Y-15928579D02*
X9467301Y-15966674D01*
X9467301Y-15966674D02*
X9467301Y-16014293D01*
X9467301Y-16014293D02*
X9457777Y-16052388D01*
X9457777Y-16052388D02*
X9448253Y-16071436D01*
X9448253Y-16071436D02*
X9438729Y-16080960D01*
X9438729Y-16080960D02*
X9419682Y-16090484D01*
X9419682Y-16090484D02*
X9400634Y-16090484D01*
X9400634Y-16090484D02*
X9381587Y-16080960D01*
X9381587Y-16080960D02*
X9372063Y-16071436D01*
X9372063Y-16071436D02*
X9362539Y-16052388D01*
X9362539Y-16052388D02*
X9353015Y-16014293D01*
X9353015Y-16014293D02*
X9353015Y-15966674D01*
X9353015Y-15966674D02*
X9362539Y-15928579D01*
X9362539Y-15928579D02*
X9372063Y-15909531D01*
X9372063Y-15909531D02*
X9381587Y-15900008D01*
X9381587Y-15900008D02*
X9400634Y-15890484D01*
X9553015Y-16071436D02*
X9562539Y-16080960D01*
X9562539Y-16080960D02*
X9553015Y-16090484D01*
X9553015Y-16090484D02*
X9543491Y-16080960D01*
X9543491Y-16080960D02*
X9553015Y-16071436D01*
X9553015Y-16071436D02*
X9553015Y-16090484D01*
X9686348Y-15890484D02*
X9705396Y-15890484D01*
X9705396Y-15890484D02*
X9724444Y-15900008D01*
X9724444Y-15900008D02*
X9733968Y-15909531D01*
X9733968Y-15909531D02*
X9743491Y-15928579D01*
X9743491Y-15928579D02*
X9753015Y-15966674D01*
X9753015Y-15966674D02*
X9753015Y-16014293D01*
X9753015Y-16014293D02*
X9743491Y-16052388D01*
X9743491Y-16052388D02*
X9733968Y-16071436D01*
X9733968Y-16071436D02*
X9724444Y-16080960D01*
X9724444Y-16080960D02*
X9705396Y-16090484D01*
X9705396Y-16090484D02*
X9686348Y-16090484D01*
X9686348Y-16090484D02*
X9667301Y-16080960D01*
X9667301Y-16080960D02*
X9657777Y-16071436D01*
X9657777Y-16071436D02*
X9648253Y-16052388D01*
X9648253Y-16052388D02*
X9638729Y-16014293D01*
X9638729Y-16014293D02*
X9638729Y-15966674D01*
X9638729Y-15966674D02*
X9648253Y-15928579D01*
X9648253Y-15928579D02*
X9657777Y-15909531D01*
X9657777Y-15909531D02*
X9667301Y-15900008D01*
X9667301Y-15900008D02*
X9686348Y-15890484D01*
X9867301Y-15976198D02*
X9848253Y-15966674D01*
X9848253Y-15966674D02*
X9838729Y-15957150D01*
X9838729Y-15957150D02*
X9829206Y-15938103D01*
X9829206Y-15938103D02*
X9829206Y-15928579D01*
X9829206Y-15928579D02*
X9838729Y-15909531D01*
X9838729Y-15909531D02*
X9848253Y-15900008D01*
X9848253Y-15900008D02*
X9867301Y-15890484D01*
X9867301Y-15890484D02*
X9905396Y-15890484D01*
X9905396Y-15890484D02*
X9924444Y-15900008D01*
X9924444Y-15900008D02*
X9933968Y-15909531D01*
X9933968Y-15909531D02*
X9943491Y-15928579D01*
X9943491Y-15928579D02*
X9943491Y-15938103D01*
X9943491Y-15938103D02*
X9933968Y-15957150D01*
X9933968Y-15957150D02*
X9924444Y-15966674D01*
X9924444Y-15966674D02*
X9905396Y-15976198D01*
X9905396Y-15976198D02*
X9867301Y-15976198D01*
X9867301Y-15976198D02*
X9848253Y-15985722D01*
X9848253Y-15985722D02*
X9838729Y-15995246D01*
X9838729Y-15995246D02*
X9829206Y-16014293D01*
X9829206Y-16014293D02*
X9829206Y-16052388D01*
X9829206Y-16052388D02*
X9838729Y-16071436D01*
X9838729Y-16071436D02*
X9848253Y-16080960D01*
X9848253Y-16080960D02*
X9867301Y-16090484D01*
X9867301Y-16090484D02*
X9905396Y-16090484D01*
X9905396Y-16090484D02*
X9924444Y-16080960D01*
X9924444Y-16080960D02*
X9933968Y-16071436D01*
X9933968Y-16071436D02*
X9943491Y-16052388D01*
X9943491Y-16052388D02*
X9943491Y-16014293D01*
X9943491Y-16014293D02*
X9933968Y-15995246D01*
X9933968Y-15995246D02*
X9924444Y-15985722D01*
X9924444Y-15985722D02*
X9905396Y-15976198D01*
X10114920Y-15890484D02*
X10076825Y-15890484D01*
X10076825Y-15890484D02*
X10057777Y-15900008D01*
X10057777Y-15900008D02*
X10048253Y-15909531D01*
X10048253Y-15909531D02*
X10029206Y-15938103D01*
X10029206Y-15938103D02*
X10019682Y-15976198D01*
X10019682Y-15976198D02*
X10019682Y-16052388D01*
X10019682Y-16052388D02*
X10029206Y-16071436D01*
X10029206Y-16071436D02*
X10038729Y-16080960D01*
X10038729Y-16080960D02*
X10057777Y-16090484D01*
X10057777Y-16090484D02*
X10095872Y-16090484D01*
X10095872Y-16090484D02*
X10114920Y-16080960D01*
X10114920Y-16080960D02*
X10124444Y-16071436D01*
X10124444Y-16071436D02*
X10133968Y-16052388D01*
X10133968Y-16052388D02*
X10133968Y-16004769D01*
X10133968Y-16004769D02*
X10124444Y-15985722D01*
X10124444Y-15985722D02*
X10114920Y-15976198D01*
X10114920Y-15976198D02*
X10095872Y-15966674D01*
X10095872Y-15966674D02*
X10057777Y-15966674D01*
X10057777Y-15966674D02*
X10038729Y-15976198D01*
X10038729Y-15976198D02*
X10029206Y-15985722D01*
X10029206Y-15985722D02*
X10019682Y-16004769D01*
X10305396Y-15890484D02*
X10267301Y-15890484D01*
X10267301Y-15890484D02*
X10248253Y-15900008D01*
X10248253Y-15900008D02*
X10238729Y-15909531D01*
X10238729Y-15909531D02*
X10219682Y-15938103D01*
X10219682Y-15938103D02*
X10210158Y-15976198D01*
X10210158Y-15976198D02*
X10210158Y-16052388D01*
X10210158Y-16052388D02*
X10219682Y-16071436D01*
X10219682Y-16071436D02*
X10229206Y-16080960D01*
X10229206Y-16080960D02*
X10248253Y-16090484D01*
X10248253Y-16090484D02*
X10286349Y-16090484D01*
X10286349Y-16090484D02*
X10305396Y-16080960D01*
X10305396Y-16080960D02*
X10314920Y-16071436D01*
X10314920Y-16071436D02*
X10324444Y-16052388D01*
X10324444Y-16052388D02*
X10324444Y-16004769D01*
X10324444Y-16004769D02*
X10314920Y-15985722D01*
X10314920Y-15985722D02*
X10305396Y-15976198D01*
X10305396Y-15976198D02*
X10286349Y-15966674D01*
X10286349Y-15966674D02*
X10248253Y-15966674D01*
X10248253Y-15966674D02*
X10229206Y-15976198D01*
X10229206Y-15976198D02*
X10219682Y-15985722D01*
X10219682Y-15985722D02*
X10210158Y-16004769D01*
X10400634Y-15890484D02*
X10400634Y-15928579D01*
X10476825Y-15890484D02*
X10476825Y-15928579D01*
X10772063Y-16166674D02*
X10762539Y-16157150D01*
X10762539Y-16157150D02*
X10743491Y-16128579D01*
X10743491Y-16128579D02*
X10733968Y-16109531D01*
X10733968Y-16109531D02*
X10724444Y-16080960D01*
X10724444Y-16080960D02*
X10714920Y-16033341D01*
X10714920Y-16033341D02*
X10714920Y-15995246D01*
X10714920Y-15995246D02*
X10724444Y-15947627D01*
X10724444Y-15947627D02*
X10733968Y-15919055D01*
X10733968Y-15919055D02*
X10743491Y-15900008D01*
X10743491Y-15900008D02*
X10762539Y-15871436D01*
X10762539Y-15871436D02*
X10772063Y-15861912D01*
X10829206Y-15890484D02*
X10953015Y-15890484D01*
X10953015Y-15890484D02*
X10886349Y-15966674D01*
X10886349Y-15966674D02*
X10914920Y-15966674D01*
X10914920Y-15966674D02*
X10933968Y-15976198D01*
X10933968Y-15976198D02*
X10943491Y-15985722D01*
X10943491Y-15985722D02*
X10953015Y-16004769D01*
X10953015Y-16004769D02*
X10953015Y-16052388D01*
X10953015Y-16052388D02*
X10943491Y-16071436D01*
X10943491Y-16071436D02*
X10933968Y-16080960D01*
X10933968Y-16080960D02*
X10914920Y-16090484D01*
X10914920Y-16090484D02*
X10857777Y-16090484D01*
X10857777Y-16090484D02*
X10838730Y-16080960D01*
X10838730Y-16080960D02*
X10829206Y-16071436D01*
X11191110Y-16090484D02*
X11191110Y-15890484D01*
X11276825Y-16090484D02*
X11276825Y-15985722D01*
X11276825Y-15985722D02*
X11267301Y-15966674D01*
X11267301Y-15966674D02*
X11248253Y-15957150D01*
X11248253Y-15957150D02*
X11219682Y-15957150D01*
X11219682Y-15957150D02*
X11200634Y-15966674D01*
X11200634Y-15966674D02*
X11191110Y-15976198D01*
X11400634Y-16090484D02*
X11381587Y-16080960D01*
X11381587Y-16080960D02*
X11372063Y-16071436D01*
X11372063Y-16071436D02*
X11362539Y-16052388D01*
X11362539Y-16052388D02*
X11362539Y-15995246D01*
X11362539Y-15995246D02*
X11372063Y-15976198D01*
X11372063Y-15976198D02*
X11381587Y-15966674D01*
X11381587Y-15966674D02*
X11400634Y-15957150D01*
X11400634Y-15957150D02*
X11429206Y-15957150D01*
X11429206Y-15957150D02*
X11448253Y-15966674D01*
X11448253Y-15966674D02*
X11457777Y-15976198D01*
X11457777Y-15976198D02*
X11467301Y-15995246D01*
X11467301Y-15995246D02*
X11467301Y-16052388D01*
X11467301Y-16052388D02*
X11457777Y-16071436D01*
X11457777Y-16071436D02*
X11448253Y-16080960D01*
X11448253Y-16080960D02*
X11429206Y-16090484D01*
X11429206Y-16090484D02*
X11400634Y-16090484D01*
X11581587Y-16090484D02*
X11562539Y-16080960D01*
X11562539Y-16080960D02*
X11553015Y-16061912D01*
X11553015Y-16061912D02*
X11553015Y-15890484D01*
X11733968Y-16080960D02*
X11714920Y-16090484D01*
X11714920Y-16090484D02*
X11676825Y-16090484D01*
X11676825Y-16090484D02*
X11657777Y-16080960D01*
X11657777Y-16080960D02*
X11648253Y-16061912D01*
X11648253Y-16061912D02*
X11648253Y-15985722D01*
X11648253Y-15985722D02*
X11657777Y-15966674D01*
X11657777Y-15966674D02*
X11676825Y-15957150D01*
X11676825Y-15957150D02*
X11714920Y-15957150D01*
X11714920Y-15957150D02*
X11733968Y-15966674D01*
X11733968Y-15966674D02*
X11743491Y-15985722D01*
X11743491Y-15985722D02*
X11743491Y-16004769D01*
X11743491Y-16004769D02*
X11648253Y-16023817D01*
X11819682Y-16080960D02*
X11838730Y-16090484D01*
X11838730Y-16090484D02*
X11876825Y-16090484D01*
X11876825Y-16090484D02*
X11895872Y-16080960D01*
X11895872Y-16080960D02*
X11905396Y-16061912D01*
X11905396Y-16061912D02*
X11905396Y-16052388D01*
X11905396Y-16052388D02*
X11895872Y-16033341D01*
X11895872Y-16033341D02*
X11876825Y-16023817D01*
X11876825Y-16023817D02*
X11848253Y-16023817D01*
X11848253Y-16023817D02*
X11829206Y-16014293D01*
X11829206Y-16014293D02*
X11819682Y-15995246D01*
X11819682Y-15995246D02*
X11819682Y-15985722D01*
X11819682Y-15985722D02*
X11829206Y-15966674D01*
X11829206Y-15966674D02*
X11848253Y-15957150D01*
X11848253Y-15957150D02*
X11876825Y-15957150D01*
X11876825Y-15957150D02*
X11895872Y-15966674D01*
X11972063Y-16166674D02*
X11981587Y-16157150D01*
X11981587Y-16157150D02*
X12000634Y-16128579D01*
X12000634Y-16128579D02*
X12010158Y-16109531D01*
X12010158Y-16109531D02*
X12019682Y-16080960D01*
X12019682Y-16080960D02*
X12029206Y-16033341D01*
X12029206Y-16033341D02*
X12029206Y-15995246D01*
X12029206Y-15995246D02*
X12019682Y-15947627D01*
X12019682Y-15947627D02*
X12010158Y-15919055D01*
X12010158Y-15919055D02*
X12000634Y-15900008D01*
X12000634Y-15900008D02*
X11981587Y-15871436D01*
X11981587Y-15871436D02*
X11972063Y-15861912D01*
X12333968Y-16166674D02*
X12324444Y-16157150D01*
X12324444Y-16157150D02*
X12305396Y-16128579D01*
X12305396Y-16128579D02*
X12295872Y-16109531D01*
X12295872Y-16109531D02*
X12286349Y-16080960D01*
X12286349Y-16080960D02*
X12276825Y-16033341D01*
X12276825Y-16033341D02*
X12276825Y-15995246D01*
X12276825Y-15995246D02*
X12286349Y-15947627D01*
X12286349Y-15947627D02*
X12295872Y-15919055D01*
X12295872Y-15919055D02*
X12305396Y-15900008D01*
X12305396Y-15900008D02*
X12324444Y-15871436D01*
X12324444Y-15871436D02*
X12333968Y-15861912D01*
X12410158Y-15957150D02*
X12410158Y-16090484D01*
X12410158Y-15976198D02*
X12419682Y-15966674D01*
X12419682Y-15966674D02*
X12438730Y-15957150D01*
X12438730Y-15957150D02*
X12467301Y-15957150D01*
X12467301Y-15957150D02*
X12486349Y-15966674D01*
X12486349Y-15966674D02*
X12495872Y-15985722D01*
X12495872Y-15985722D02*
X12495872Y-16090484D01*
X12619682Y-16090484D02*
X12600634Y-16080960D01*
X12600634Y-16080960D02*
X12591111Y-16071436D01*
X12591111Y-16071436D02*
X12581587Y-16052388D01*
X12581587Y-16052388D02*
X12581587Y-15995246D01*
X12581587Y-15995246D02*
X12591111Y-15976198D01*
X12591111Y-15976198D02*
X12600634Y-15966674D01*
X12600634Y-15966674D02*
X12619682Y-15957150D01*
X12619682Y-15957150D02*
X12648253Y-15957150D01*
X12648253Y-15957150D02*
X12667301Y-15966674D01*
X12667301Y-15966674D02*
X12676825Y-15976198D01*
X12676825Y-15976198D02*
X12686349Y-15995246D01*
X12686349Y-15995246D02*
X12686349Y-16052388D01*
X12686349Y-16052388D02*
X12676825Y-16071436D01*
X12676825Y-16071436D02*
X12667301Y-16080960D01*
X12667301Y-16080960D02*
X12648253Y-16090484D01*
X12648253Y-16090484D02*
X12619682Y-16090484D01*
X12743492Y-15957150D02*
X12819682Y-15957150D01*
X12772063Y-15890484D02*
X12772063Y-16061912D01*
X12772063Y-16061912D02*
X12781587Y-16080960D01*
X12781587Y-16080960D02*
X12800634Y-16090484D01*
X12800634Y-16090484D02*
X12819682Y-16090484D01*
X13038730Y-15957150D02*
X13038730Y-16157150D01*
X13038730Y-15966674D02*
X13057777Y-15957150D01*
X13057777Y-15957150D02*
X13095873Y-15957150D01*
X13095873Y-15957150D02*
X13114920Y-15966674D01*
X13114920Y-15966674D02*
X13124444Y-15976198D01*
X13124444Y-15976198D02*
X13133968Y-15995246D01*
X13133968Y-15995246D02*
X13133968Y-16052388D01*
X13133968Y-16052388D02*
X13124444Y-16071436D01*
X13124444Y-16071436D02*
X13114920Y-16080960D01*
X13114920Y-16080960D02*
X13095873Y-16090484D01*
X13095873Y-16090484D02*
X13057777Y-16090484D01*
X13057777Y-16090484D02*
X13038730Y-16080960D01*
X13248253Y-16090484D02*
X13229206Y-16080960D01*
X13229206Y-16080960D02*
X13219682Y-16061912D01*
X13219682Y-16061912D02*
X13219682Y-15890484D01*
X13410158Y-16090484D02*
X13410158Y-15985722D01*
X13410158Y-15985722D02*
X13400634Y-15966674D01*
X13400634Y-15966674D02*
X13381587Y-15957150D01*
X13381587Y-15957150D02*
X13343492Y-15957150D01*
X13343492Y-15957150D02*
X13324444Y-15966674D01*
X13410158Y-16080960D02*
X13391111Y-16090484D01*
X13391111Y-16090484D02*
X13343492Y-16090484D01*
X13343492Y-16090484D02*
X13324444Y-16080960D01*
X13324444Y-16080960D02*
X13314920Y-16061912D01*
X13314920Y-16061912D02*
X13314920Y-16042865D01*
X13314920Y-16042865D02*
X13324444Y-16023817D01*
X13324444Y-16023817D02*
X13343492Y-16014293D01*
X13343492Y-16014293D02*
X13391111Y-16014293D01*
X13391111Y-16014293D02*
X13410158Y-16004769D01*
X13476825Y-15957150D02*
X13553015Y-15957150D01*
X13505396Y-15890484D02*
X13505396Y-16061912D01*
X13505396Y-16061912D02*
X13514920Y-16080960D01*
X13514920Y-16080960D02*
X13533968Y-16090484D01*
X13533968Y-16090484D02*
X13553015Y-16090484D01*
X13695873Y-16080960D02*
X13676825Y-16090484D01*
X13676825Y-16090484D02*
X13638730Y-16090484D01*
X13638730Y-16090484D02*
X13619682Y-16080960D01*
X13619682Y-16080960D02*
X13610158Y-16061912D01*
X13610158Y-16061912D02*
X13610158Y-15985722D01*
X13610158Y-15985722D02*
X13619682Y-15966674D01*
X13619682Y-15966674D02*
X13638730Y-15957150D01*
X13638730Y-15957150D02*
X13676825Y-15957150D01*
X13676825Y-15957150D02*
X13695873Y-15966674D01*
X13695873Y-15966674D02*
X13705396Y-15985722D01*
X13705396Y-15985722D02*
X13705396Y-16004769D01*
X13705396Y-16004769D02*
X13610158Y-16023817D01*
X13876825Y-16090484D02*
X13876825Y-15890484D01*
X13876825Y-16080960D02*
X13857777Y-16090484D01*
X13857777Y-16090484D02*
X13819682Y-16090484D01*
X13819682Y-16090484D02*
X13800634Y-16080960D01*
X13800634Y-16080960D02*
X13791111Y-16071436D01*
X13791111Y-16071436D02*
X13781587Y-16052388D01*
X13781587Y-16052388D02*
X13781587Y-15995246D01*
X13781587Y-15995246D02*
X13791111Y-15976198D01*
X13791111Y-15976198D02*
X13800634Y-15966674D01*
X13800634Y-15966674D02*
X13819682Y-15957150D01*
X13819682Y-15957150D02*
X13857777Y-15957150D01*
X13857777Y-15957150D02*
X13876825Y-15966674D01*
X13953015Y-16166674D02*
X13962539Y-16157150D01*
X13962539Y-16157150D02*
X13981587Y-16128579D01*
X13981587Y-16128579D02*
X13991111Y-16109531D01*
X13991111Y-16109531D02*
X14000634Y-16080960D01*
X14000634Y-16080960D02*
X14010158Y-16033341D01*
X14010158Y-16033341D02*
X14010158Y-15995246D01*
X14010158Y-15995246D02*
X14000634Y-15947627D01*
X14000634Y-15947627D02*
X13991111Y-15919055D01*
X13991111Y-15919055D02*
X13981587Y-15900008D01*
X13981587Y-15900008D02*
X13962539Y-15871436D01*
X13962539Y-15871436D02*
X13953015Y-15861912D01*
M02*
