G04 #@! TF.GenerationSoftware,KiCad,Pcbnew,10.0.1*
G04 #@! TF.CreationDate,2026-07-12T23:09:01+03:00*
G04 #@! TF.ProjectId,flex,666c6578-2e6b-4696-9361-645f70636258,rev?*
G04 #@! TF.SameCoordinates,Original*
G04 #@! TF.FileFunction,Soldermask,Bot*
G04 #@! TF.FilePolarity,Negative*
%FSLAX46Y46*%
G04 Gerber Fmt 4.6, Leading zero omitted, Abs format (unit mm)*
G04 Created by KiCad (PCBNEW 10.0.1) date 2026-07-12 23:09:01*
%MOMM*%
%LPD*%
G01*
G04 APERTURE LIST*
G04 Aperture macros list*
%AMRoundRect*
0 Rectangle with rounded corners*
0 $1 Rounding radius*
0 $2 $3 $4 $5 $6 $7 $8 $9 X,Y pos of 4 corners*
0 Add a 4 corners polygon primitive as box body*
4,1,4,$2,$3,$4,$5,$6,$7,$8,$9,$2,$3,0*
0 Add four circle primitives for the rounded corners*
1,1,$1+$1,$2,$3*
1,1,$1+$1,$4,$5*
1,1,$1+$1,$6,$7*
1,1,$1+$1,$8,$9*
0 Add four rect primitives between the rounded corners*
20,1,$1+$1,$2,$3,$4,$5,0*
20,1,$1+$1,$4,$5,$6,$7,0*
20,1,$1+$1,$6,$7,$8,$9,0*
20,1,$1+$1,$8,$9,$2,$3,0*%
%AMFreePoly0*
4,1,37,0.603843,0.796157,0.639018,0.796157,0.711114,0.766294,0.766294,0.711114,0.796157,0.639018,0.796157,0.603843,0.800000,0.600000,0.800000,-0.600000,0.796157,-0.603843,0.796157,-0.639018,0.766294,-0.711114,0.711114,-0.766294,0.639018,-0.796157,0.603843,-0.796157,0.600000,-0.800000,0.000000,-0.800000,0.000000,-0.796148,-0.078414,-0.796148,-0.232228,-0.765552,-0.377117,-0.705537,
-0.507515,-0.618408,-0.618408,-0.507515,-0.705537,-0.377117,-0.765552,-0.232228,-0.796148,-0.078414,-0.796148,0.078414,-0.765552,0.232228,-0.705537,0.377117,-0.618408,0.507515,-0.507515,0.618408,-0.377117,0.705537,-0.232228,0.765552,-0.078414,0.796148,0.000000,0.796148,0.000000,0.800000,0.600000,0.800000,0.603843,0.796157,0.603843,0.796157,$1*%
%AMFreePoly1*
4,1,37,0.000000,0.796148,0.078414,0.796148,0.232228,0.765552,0.377117,0.705537,0.507515,0.618408,0.618408,0.507515,0.705537,0.377117,0.765552,0.232228,0.796148,0.078414,0.796148,-0.078414,0.765552,-0.232228,0.705537,-0.377117,0.618408,-0.507515,0.507515,-0.618408,0.377117,-0.705537,0.232228,-0.765552,0.078414,-0.796148,0.000000,-0.796148,0.000000,-0.800000,-0.600000,-0.800000,
-0.603843,-0.796157,-0.639018,-0.796157,-0.711114,-0.766294,-0.766294,-0.711114,-0.796157,-0.639018,-0.796157,-0.603843,-0.800000,-0.600000,-0.800000,0.600000,-0.796157,0.603843,-0.796157,0.639018,-0.766294,0.711114,-0.711114,0.766294,-0.639018,0.796157,-0.603843,0.796157,-0.600000,0.800000,0.000000,0.800000,0.000000,0.796148,0.000000,0.796148,$1*%
G04 Aperture macros list end*
%ADD10R,1.700000X1.700000*%
%ADD11C,1.700000*%
%ADD12C,2.200000*%
%ADD13C,1.600000*%
%ADD14RoundRect,0.200000X-0.600000X-0.600000X0.600000X-0.600000X0.600000X0.600000X-0.600000X0.600000X0*%
%ADD15FreePoly0,0.000000*%
%ADD16FreePoly1,0.000000*%
%ADD17C,2.400000*%
G04 APERTURE END LIST*
D10*
G04 #@! TO.C,LS1*
X75410000Y-81190000D03*
D11*
X75410000Y-83730000D03*
G04 #@! TD*
D12*
G04 #@! TO.C,H2*
X84830000Y-143940000D03*
G04 #@! TD*
G04 #@! TO.C,H3*
X118470000Y-144930000D03*
G04 #@! TD*
G04 #@! TO.C,H1*
X103640000Y-36120000D03*
G04 #@! TD*
D13*
G04 #@! TO.C,SW1*
X100720000Y-134380000D03*
X105520000Y-134380000D03*
X100720000Y-137380000D03*
X105520000Y-137380000D03*
G04 #@! TD*
D10*
G04 #@! TO.C,DS1*
X119630000Y-41590000D03*
D11*
X117090000Y-41590000D03*
X114550000Y-41590000D03*
X112010000Y-41590000D03*
X109470000Y-41590000D03*
X106930000Y-41590000D03*
X104390000Y-41590000D03*
X101850000Y-41590000D03*
X99310000Y-41590000D03*
X96770000Y-41590000D03*
X94230000Y-41590000D03*
X91690000Y-41590000D03*
X89150000Y-41590000D03*
X86610000Y-41590000D03*
D10*
X106930000Y-125410000D03*
D11*
X104390000Y-125410000D03*
X101850000Y-125410000D03*
X99310000Y-125410000D03*
G04 #@! TD*
D10*
G04 #@! TO.C,BT1*
X75475000Y-99925000D03*
D11*
X75475000Y-102465000D03*
G04 #@! TD*
D14*
G04 #@! TO.C,A1*
X94230000Y-151930000D03*
D13*
X94230000Y-149390000D03*
D15*
X94230000Y-146850000D03*
D13*
X94230000Y-144310000D03*
X94230000Y-141770000D03*
X94230000Y-139230000D03*
X94230000Y-136690000D03*
D15*
X94230000Y-134150000D03*
D13*
X94230000Y-131610000D03*
X94230000Y-129070000D03*
X94230000Y-126530000D03*
X94230000Y-123990000D03*
D15*
X94230000Y-121450000D03*
D13*
X94230000Y-118910000D03*
X94230000Y-116370000D03*
X94230000Y-113830000D03*
X94230000Y-111290000D03*
D15*
X94230000Y-108750000D03*
D13*
X94230000Y-106210000D03*
X94230000Y-103670000D03*
X112010000Y-103670000D03*
X112010000Y-106210000D03*
D16*
X112010000Y-108750000D03*
D13*
X112010000Y-111290000D03*
X112010000Y-113830000D03*
X112010000Y-116370000D03*
X112010000Y-118910000D03*
D16*
X112010000Y-121450000D03*
D13*
X112010000Y-123990000D03*
X112010000Y-126530000D03*
X112010000Y-129070000D03*
X112010000Y-131610000D03*
D16*
X112010000Y-134150000D03*
D13*
X112010000Y-136690000D03*
X112010000Y-139230000D03*
X112010000Y-141770000D03*
X112010000Y-144310000D03*
D16*
X112010000Y-146850000D03*
D13*
X112010000Y-149390000D03*
X112010000Y-151930000D03*
G04 #@! TD*
D11*
G04 #@! TO.C,U1*
X85690000Y-69410000D03*
X88230000Y-69410000D03*
X90770000Y-69410000D03*
X93310000Y-69410000D03*
X95850000Y-69410000D03*
X98390000Y-69410000D03*
X100930000Y-69410000D03*
X103470000Y-69410000D03*
D10*
X108550000Y-69410000D03*
D11*
X106010000Y-69410000D03*
X103470000Y-89730000D03*
X106010000Y-89730000D03*
D10*
X108550000Y-89730000D03*
D11*
X90770000Y-89730000D03*
X93310000Y-89730000D03*
X95850000Y-89730000D03*
X98390000Y-89730000D03*
X100930000Y-89730000D03*
G04 #@! TD*
D17*
G04 #@! TO.C,SW3*
X127463250Y-78910000D03*
X127463250Y-71910000D03*
D11*
X129963250Y-77660000D03*
X129963250Y-73160000D03*
G04 #@! TD*
D17*
G04 #@! TO.C,SW2*
X127463250Y-66870000D03*
X127463250Y-59870000D03*
D11*
X129963250Y-65620000D03*
X129963250Y-61120000D03*
G04 #@! TD*
M02*
